<?xml version="1.0" standalone="no"?>
<!DOCTYPE svg PUBLIC "-//W3C//DTD SVG 20010904//EN"
 "http://www.w3.org/TR/2001/REC-SVG-20010904/DTD/svg10.dtd">
<svg version="1.0" xmlns="http://www.w3.org/2000/svg"
 width="700.000000pt" height="700.000000pt" viewBox="0 0 700.000000 700.000000"
 preserveAspectRatio="xMidYMid meet">
<metadata>
Created by potrace 1.14, written by Peter Selinger 2001-2017
</metadata>
<g transform="translate(0.000000,700.000000) scale(0.100000,-0.100000)"
fill="#000000" stroke="none">
<path d="M1050 6995 c-8 -2 -49 -9 -90 -15 -360 -59 -690 -312 -850 -652 -50
-108 -85 -229 -100 -348 -8 -70 -10 -732 -8 -2540 l4 -2445 21 -85 c59 -237
152 -401 323 -570 191 -190 406 -295 673 -330 57 -7 842 -10 2532 -8 l2450 4
85 21 c238 60 427 168 588 337 156 165 258 363 303 591 21 104 21 4986 0 5090
-46 231 -146 427 -305 593 -163 170 -347 275 -586 335 l-85 21 -2470 2 c-1358
1 -2477 0 -2485 -1z m2528 -2365 l2272 -824 0 -306 0 -306 -2347 -851 -2348
-851 -3 330 c-1 182 -1 333 1 335 2 2 851 303 1886 670 1043 370 1876 670
1869 674 -10 5 -3531 1262 -3715 1326 l-43 15 0 334 0 334 78 -28 c42 -16
1100 -399 2350 -852z"/>
</g>
</svg>
